{
  "accessors": [
    {
      "bufferView": 2,
      "componentType": 5126,
      "count": 190,
      "max": [
        3.478971004486084,
        6.070803165435791,
        2.9231300354003906
      ],
      "min": [
        0.24605800211429596,
        5.606532096862793,
        0.25245800614356995
      ],
      "type": "VEC3"
    },
    {
      "bufferView": 2,
      "byteOffset": 2280,
      "componentType": 5126,
      "count": 190,
      "max": [
        0.7523032426834106,
        0.948651909828186,
        0.7975866794586182
      ],
      "min": [
        -0.8360992074012756,
        -0.9493866562843323,
        -0.7693974375724792
      ],
      "type": "VEC3"
    },
    {
      "bufferView": 1,
      "componentType": 5126,
      "count": 190,
      "max": [
        0.7878519892692566,
        0.999908983707428
      ],
      "min": [
        9.100000170292333e-05,
        9.100000170292333e-05
      ],
      "type": "VEC2"
    },
    {
      "bufferView": 0,
      "componentType": 5125,
      "count": 546,
      "type": "SCALAR"
    },
    {
      "bufferView": 2,
      "byteOffset": 4560,
      "componentType": 5126,
      "count": 736,
      "max": [
        3.478971004486084,
        6.070803165435791,
        2.9578399658203125
      ],
      "min": [
        0.24605800211429596,
        5.606532096862793,
        0.21854500472545624
      ],
      "type": "VEC3"
    },
    {
      "bufferView": 2,
      "byteOffset": 13392,
      "componentType": 5126,
      "count": 736,
      "max": [
        0.9999350309371948,
        0.948651909828186,
        0.9990004897117615
      ],
      "min": [
        -0.9999911785125732,
        -0.9493866562843323,
        -0.9989137053489685
      ],
      "type": "VEC3"
    },
    {
      "bufferView": 1,
      "byteOffset": 1520,
      "componentType": 5126,
      "count": 736,
      "max": [
        1.0,
        0.9952970147132874
      ],
      "min": [
        0.0,
        0.0
      ],
      "type": "VEC2"
    },
    {
      "bufferView": 0,
      "byteOffset": 2184,
      "componentType": 5125,
      "count": 2166,
      "type": "SCALAR"
    }
  ],
  "asset": {
    "extras": {
      "author": "bestworld (https://sketchfab.com/bestworld)",
      "license": "CC-BY-4.0 (http://creativecommons.org/licenses/by/4.0/)",
      "source": "https://sketchfab.com/3d-models/bonk-the-bonk-3d190d8cd48f4aba866fcd62d3c8826a",
      "title": "Bonk the Bonk"
    },
    "generator": "Sketchfab-12.68.0",
    "version": "2.0"
  },
  "bufferViews": [
    {
      "buffer": 0,
      "byteLength": 10848,
      "name": "floatBufferViews",
      "target": 34963
    },
    {
      "buffer": 0,
      "byteLength": 7408,
      "byteOffset": 10848,
      "byteStride": 8,
      "name": "floatBufferViews",
      "target": 34962
    },
    {
      "buffer": 0,
      "byteLength": 22224,
      "byteOffset": 18256,
      "byteStride": 12,
      "name": "floatBufferViews",
      "target": 34962
    }
  ],
  "buffers": [
    {
      "byteLength": 40480,
      "uri": "scene.bin"
    }
  ],
  "images": [
    {
      "uri": "textures/Material.001_baseColor.png"
    },
    {
      "uri": "textures/Material.002_baseColor.png"
    }
  ],
  "materials": [
    {
      "doubleSided": true,
      "name": "Material.001",
      "pbrMetallicRoughness": {
        "baseColorTexture": {
          "index": 0
        },
        "metallicFactor": 0.0,
        "roughnessFactor": 0.7261387212474169
      }
    },
    {
      "doubleSided": true,
      "name": "Material.002",
      "pbrMetallicRoughness": {
        "baseColorTexture": {
          "index": 1
        },
        "metallicFactor": 0.0,
        "roughnessFactor": 0.7457301227581214
      }
    }
  ],
  "meshes": [
    {
      "name": "Object_0",
      "primitives": [
        {
          "attributes": {
            "NORMAL": 1,
            "POSITION": 0,
            "TEXCOORD_0": 2
          },
          "indices": 3,
          "material": 0,
          "mode": 4
        }
      ]
    },
    {
      "name": "Object_1",
      "primitives": [
        {
          "attributes": {
            "NORMAL": 5,
            "POSITION": 4,
            "TEXCOORD_0": 6
          },
          "indices": 7,
          "material": 1,
          "mode": 4
        }
      ]
    }
  ],
  "nodes": [
    {
      "children": [
        1
      ],
      "matrix": [
        1.0,
        0.0,
        0.0,
        0.0,
        0.0,
        2.220446049250313e-16,
        -1.0,
        0.0,
        0.0,
        1.0,
        2.220446049250313e-16,
        0.0,
        0.0,
        0.0,
        0.0,
        1.0
      ],
      "name": "Sketchfab_model"
    },
    {
      "children": [
        2,
        3
      ],
      "name": "dobo_icon.obj.cleaner.materialmerger.gles"
    },
    {
      "mesh": 0,
      "name": "Object_2"
    },
    {
      "mesh": 1,
      "name": "Object_3"
    }
  ],
  "samplers": [
    {
      "magFilter": 9729,
      "minFilter": 9987,
      "wrapS": 10497,
      "wrapT": 10497
    }
  ],
  "scene": 0,
  "scenes": [
    {
      "name": "Sketchfab_Scene",
      "nodes": [
        0
      ]
    }
  ],
  "textures": [
    {
      "sampler": 0,
      "source": 0
    },
    {
      "sampler": 0,
      "source": 1
    }
  ]
}
